<svg width="102" height="29" fill="none" xmlns="http://www.w3.org/2000/svg"><g clip-path="url(#a)" fill-rule="evenodd" clip-rule="evenodd"><path d="M31.097 24.363V11.98h4.195v12.382h-4.195Zm2.098-13.752c-.766 0-1.384-.221-1.855-.663a2.163 2.163 0 0 1-.707-1.645c0-.655.236-1.203.707-1.645.47-.441 1.09-.662 1.855-.662.765 0 1.384.213 1.855.64.471.41.707.944.707 1.599 0 .654-.236 1.256-.707 1.713-.456.442-1.075.663-1.855.663Zm30.482-2.24v15.992h8.347c2.076 0 3.652-.381 4.726-1.143 1.09-.776 1.634-1.858 1.634-3.244 0-.928-.228-1.713-.685-2.352-.441-.655-1.067-1.15-1.877-1.485a5.6 5.6 0 0 0-.285-.114c.616-.345 1.101-.778 1.456-1.302.427-.625.64-1.348.64-2.17 0-1.25-.5-2.255-1.501-3.016-1.001-.777-2.518-1.165-4.55-1.165h-7.905Zm7.994 12.725h-3.666v-3.244h3.666c.751 0 1.318.137 1.7.41.398.26.596.663.596 1.211 0 .549-.198.96-.596 1.234-.383.26-.95.389-1.7.389Zm-3.666-6.373v-3.084h3.004c.736 0 1.288.13 1.656.389.368.243.552.624.552 1.142 0 .517-.184.906-.552 1.165-.368.259-.92.389-1.656.389h-3.004v-.001Zm31.074 9.846c-1.53 0-2.723-.389-3.577-1.165-.854-.792-1.28-1.98-1.28-3.564v-4.158h-1.745v-3.244h1.744v-3.22h4.196v3.22h2.738v3.244h-2.738v4.112c0 .442.118.792.353 1.051.236.244.538.365.906.365.5 0 .927-.129 1.281-.388l1.037 3.038c-.353.244-.787.42-1.303.526a6.959 6.959 0 0 1-1.612.183Zm-12.799 0c-1.413 0-2.65-.274-3.71-.822-1.045-.564-1.862-1.325-2.451-2.285-.574-.974-.861-2.078-.861-3.312s.28-2.33.839-3.29a5.922 5.922 0 0 1 2.362-2.261c1.002-.548 2.128-.822 3.38-.822 1.177 0 2.252.251 3.223.754a5.569 5.569 0 0 1 2.319 2.17c.574.96.862 2.125.862 3.496 0 .152-.008.327-.023.525-.014.198-.03.38-.043.548H83.48c.058.221.137.427.238.617.251.441.604.784 1.06 1.028.457.228 1.002.343 1.635.343.588 0 1.088-.084 1.5-.252a4.708 4.708 0 0 0 1.26-.822l2.208 2.376a5.691 5.691 0 0 1-2.12 1.508c-.84.335-1.832.503-2.98.503v-.002Zm-2.606-8.385a2.86 2.86 0 0 0-.256.8h4.899a2.566 2.566 0 0 0-.27-.822 2.282 2.282 0 0 0-.883-.96c-.368-.228-.803-.342-1.304-.342-.5 0-.942.114-1.324.342a2.3 2.3 0 0 0-.862.983ZM52.28 29a6.119 6.119 0 0 1-1.921-.32c-.633-.197-1.149-.465-1.546-.8l1.457-3.038c.251.228.538.403.861.526.34.137.67.205.994.205.457 0 .817-.107 1.082-.32.209-.168.394-.41.558-.73L48.636 11.98h4.306l2.939 7.566 2.958-7.566h3.996l-5.167 12.885c-.412 1.065-.89 1.895-1.435 2.49-.53.609-1.126 1.035-1.789 1.278-.648.244-1.369.366-2.164.366Zm-12.141-5.254c1.045.548 2.23.822 3.555.822 1.324 0 2.525-.297 3.511-.89a4.881 4.881 0 0 0 2.099-2.514l-3.247-1.713c-.28.578-.626 1.005-1.038 1.279a2.48 2.48 0 0 1-1.347.388c-.486 0-.927-.114-1.325-.342a2.462 2.462 0 0 1-.95-1.005c-.22-.442-.331-.983-.331-1.622 0-.639.11-1.15.331-1.576.236-.442.552-.777.95-1.005.397-.229.839-.343 1.325-.343s.935.137 1.347.411c.413.26.758.678 1.038 1.257l3.246-1.714a4.884 4.884 0 0 0-2.098-2.513c-.986-.594-2.157-.89-3.511-.89-1.355 0-2.51.273-3.555.822a6.054 6.054 0 0 0-2.43 2.238c-.589.96-.883 2.064-.883 3.313s.294 2.36.883 3.335a6.208 6.208 0 0 0 2.43 2.262Zm-21.484.229c.78.396 1.657.594 2.628.594.913 0 1.76-.221 2.54-.663a4.12 4.12 0 0 0 1.015-.837v1.294h3.997V11.982H24.64v5.962c0 .686-.104 1.25-.31 1.69-.206.427-.478.74-.817.937a2.192 2.192 0 0 1-1.126.297c-.633 0-1.126-.206-1.48-.617-.338-.41-.507-1.096-.507-2.056v-6.213h-4.196v6.922c0 1.294.214 2.368.64 3.22.442.838 1.046 1.455 1.811 1.85Z" fill="#FFCBFA"/><path d="M3.353 8.67h11.454v8.68h-.001c-.034 2.671-1.188 4.923-2.693 6.272-1.455 1.304-3.423 1.81-5.057 1.81-1.723 0-3.44-.732-4.686-1.438C1.132 23.292 0 22.417 0 22.417l3.533-3.856c.316.25.713.522 1.153.771.953.54 1.78.793 2.255.793.333 0 1.026-.195 1.624-.73.525-.47.921-1.148.921-2.164v-3.254H3.353V8.67Z" fill="#A56CFF"/><path d="M10.058 7.583c-.11-3.09-2.521-5.56-5.48-5.56-.522 0-1.027.077-1.505.22.11 3.09 2.521 5.56 5.48 5.56.522 0 1.027-.077 1.505-.22Z" fill="#197F3B"/><path d="M6.705 7.506C6.855 3.334 10.134 0 14.158 0c.71 0 1.396.104 2.045.297-.149 4.173-3.428 7.506-7.452 7.506a7.14 7.14 0 0 1-2.046-.297Z" fill="#8CE36D"/></g><defs><clipPath id="a"><path fill="#fff" d="M0 0h102v29H0z"/></clipPath></defs></svg>